<mxfile host="app.diagrams.net" modified="2021-05-24T15:29:01.333Z" agent="5.0 (Macintosh; Intel Mac OS X 10_15_6) AppleWebKit/605.1.15 (KHTML, like Gecko) Version/14.0.3 Safari/605.1.15" etag="XJoygJslSpbLBM1Rc_nQ" version="14.6.11" type="github">
  <diagram id="60Qj0OtNPnZQbCHVM9AT" name="第 1 页">
    <mxGraphModel dx="946" dy="558" grid="1" gridSize="10" guides="1" tooltips="1" connect="1" arrows="1" fold="1" page="1" pageScale="1" pageWidth="827" pageHeight="1169" math="0" shadow="0">
      <root>
        <mxCell id="0" />
        <mxCell id="1" parent="0" />
        <mxCell id="fz4-xb6mM2fv7bPkQcwD-5" style="edgeStyle=orthogonalEdgeStyle;rounded=0;orthogonalLoop=1;jettySize=auto;html=1;fontSize=16;" edge="1" parent="1" source="fz4-xb6mM2fv7bPkQcwD-1" target="fz4-xb6mM2fv7bPkQcwD-2">
          <mxGeometry relative="1" as="geometry" />
        </mxCell>
        <mxCell id="fz4-xb6mM2fv7bPkQcwD-1" value="I/O &amp;nbsp;系统调用&lt;br style=&quot;font-size: 16px;&quot;&gt;write() 等" style="rounded=1;whiteSpace=wrap;html=1;fontSize=16;fillColor=#d5e8d4;strokeColor=#82b366;" vertex="1" parent="1">
          <mxGeometry x="250" y="150" width="160" height="60" as="geometry" />
        </mxCell>
        <mxCell id="fz4-xb6mM2fv7bPkQcwD-8" style="edgeStyle=orthogonalEdgeStyle;rounded=0;orthogonalLoop=1;jettySize=auto;html=1;entryX=0.5;entryY=0;entryDx=0;entryDy=0;fontSize=16;entryPerimeter=0;" edge="1" parent="1" source="fz4-xb6mM2fv7bPkQcwD-2" target="fz4-xb6mM2fv7bPkQcwD-4">
          <mxGeometry relative="1" as="geometry" />
        </mxCell>
        <mxCell id="fz4-xb6mM2fv7bPkQcwD-2" value="内核缓冲区" style="rounded=1;whiteSpace=wrap;html=1;fontSize=16;fillColor=#ffe6cc;strokeColor=#d79b00;" vertex="1" parent="1">
          <mxGeometry x="250" y="270" width="160" height="60" as="geometry" />
        </mxCell>
        <mxCell id="fz4-xb6mM2fv7bPkQcwD-3" value="由内核发起的写操作" style="rounded=1;whiteSpace=wrap;html=1;fontSize=16;fillColor=#dae8fc;strokeColor=#6c8ebf;" vertex="1" parent="1">
          <mxGeometry x="250" y="380" width="160" height="60" as="geometry" />
        </mxCell>
        <mxCell id="fz4-xb6mM2fv7bPkQcwD-4" value="硬盘" style="shape=cylinder3;whiteSpace=wrap;html=1;boundedLbl=1;backgroundOutline=1;size=15;fontSize=16;fillColor=#f5f5f5;strokeColor=#666666;fontColor=#333333;" vertex="1" parent="1">
          <mxGeometry x="260" y="490" width="140" height="90" as="geometry" />
        </mxCell>
        <mxCell id="fz4-xb6mM2fv7bPkQcwD-10" style="edgeStyle=orthogonalEdgeStyle;rounded=0;orthogonalLoop=1;jettySize=auto;html=1;fontFamily=Courier New;fontSize=16;curved=1;dashed=1;" edge="1" parent="1" source="fz4-xb6mM2fv7bPkQcwD-9">
          <mxGeometry relative="1" as="geometry">
            <mxPoint x="294" y="380" as="targetPoint" />
          </mxGeometry>
        </mxCell>
        <mxCell id="fz4-xb6mM2fv7bPkQcwD-9" value="fsync()" style="rounded=0;whiteSpace=wrap;html=1;fontSize=16;fontFamily=Courier New;fillColor=#f8cecc;strokeColor=#b85450;" vertex="1" parent="1">
          <mxGeometry x="60" y="260" width="120" height="60" as="geometry" />
        </mxCell>
      </root>
    </mxGraphModel>
  </diagram>
</mxfile>
